<?xml version="1.0" encoding="utf-8"?>
<!-- Generator: Adobe Illustrator 16.0.0, SVG Export Plug-In . SVG Version: 6.00 Build 0)  -->
<!DOCTYPE svg PUBLIC "-//W3C//DTD SVG 1.1//EN" "http://www.w3.org/Graphics/SVG/1.1/DTD/svg11.dtd">
<svg version="1.1" id="Capa_1" xmlns="http://www.w3.org/2000/svg" xmlns:xlink="http://www.w3.org/1999/xlink" x="0px" y="0px"
	 width="400px" height="300px" viewBox="0 0 400 300" enable-background="new 0 0 400 300" xml:space="preserve">
<path fill-rule="evenodd" clip-rule="evenodd" fill="none" d="M82.174,37c14.085,9.679,28.175,19.362,42.261,29.041
	c-22.824,33.093-45.654,66.196-68.478,99.289C40.306,155.127,24.65,144.921,9,134.719c0.391-0.393,0.783-0.785,1.174-1.177
	C34.171,101.364,58.176,69.177,82.174,37z M322.826,37c18.259,24.329,36.523,48.666,54.783,72.995
	c3.346,4.593,15.873,21.371,18.391,25.117c-15.65,9.941-31.306,20.277-46.957,30.218c-22.693-33.093-45.394-66.196-68.087-99.289
	c0.261-0.131,0.522-0.262,0.783-0.393C295.434,56.1,309.132,46.548,322.826,37z M216.391,50.736
	c19.563,5.755,39.133,11.512,58.696,17.267c17.607,25.637,35.219,51.282,52.826,76.919c-0.261,0.392-0.522,0.785-0.783,1.177
	c-0.13,0-0.261,0-0.391,0c-11.477-7.848-22.958-15.699-34.435-23.546c-17.003-11.992-32.814-26.744-55.174-32.966
	c-5.62-1.563-16.681-4.295-17.217-4.317c-0.634-0.025-14.713,0.983-22.304,1.57c-1.696,0-3.783,0.393-5.479,0.393
	c-1.68,5.084-4.025,10.344-6.652,14.913c-7.482,11.271-18.483,8.247-33.261,6.671c0-0.523,0-1.046,0-1.57
	c4.435-15.042,8.87-30.089,13.304-45.131C182.477,58.323,199.437,54.529,216.391,50.736z M159.652,58.192c0.261,0,0.521,0,0.782,0
	c-5.347,18.313-10.696,36.63-16.043,54.942c6.913,1.308,13.827,2.616,20.739,3.924c18.483,2.882,27.629-11.615,31.304-23.939
	c8.086-0.523,15.001-1.046,23.087-1.57c11.688,2.875,24.656,5.161,30.913,9.419c23.439,15.949,23.066,15.741,50.479,34.535
	c5.596,3.836,23.421,15.241,29.348,20.407c-0.8,16.75-15.98,18.235-27,10.989c6.957,9.604,2.918,19.287-4.304,23.546
	c-4.106,2.422-11.599,2.321-22.304-5.102c6.981,9.664,2.934,19.592-2.739,22.762c-11.763,6.572-17.182-0.874-25.826-5.494
	c10.051,15.618-8.584,31.976-21.913,20.799c6.474-12.639,0.265-35.821-17.217-32.573c7.893-17.277-9.13-37.955-30.13-27.471
	c-2.325-19.01-23.225-23.132-33.261-14.913c-1.167-11.107-14.572-21.723-28.174-16.09c-9.82,4.066-14.332,14.757-21.521,21.584
	c-5.869-3.27-11.74-6.541-17.609-9.812c17.607-25.768,35.219-51.543,52.826-77.312C140.608,63.948,150.131,61.07,159.652,58.192z
	 M43.043,118.628c-3.347,0.73-5.177,1.897-7.043,4.317c-5.387,6.984,0.236,19.805,11.348,16.875
	C60.1,136.458,56.476,117.106,43.043,118.628z M358.435,118.628c-15.024,4.38-8.245,24.566,4.696,21.192
	C374.967,136.734,373.537,117.047,358.435,118.628z M118.174,138.643c5.563-3.297,11.963-1.099,14.951,0.909
	c2.252,1.515,9.124,9.149,6.18,16.751c-2.358,6.09-21.62,27.788-23.478,28.256c-7.808,1.967-13.381,0.323-17.217-2.747
	c-3.941-3.153-5.661-14.136-3.13-16.875C98.65,161.504,111.52,142.183,118.174,138.643z M151.826,151.594
	c7.405-1.646,11.948-0.313,15.811,2.508c4.246,3.101,5.674,10.817,4.537,15.937c-1.009,4.543-25.381,33.284-28.174,34.535
	c-8.126,3.641-15.91,0.182-18.783-3.14c-4.214-4.871-3.909-10.748-1.957-15.697C124.057,183.718,145.319,154.94,151.826,151.594z
	 M181.565,168.861c14.128-7.052,26.009,4.471,22.304,18.053c-1.322,4.845-27.309,33.643-30.13,36.497
	c-1.465,1.481-8.844,2.91-13.696,1.177c-6.61-2.361-12.805-12.467-8.217-21.192c3.26-3.793,6.522-7.587,9.783-11.381
	C169.655,182.759,172.5,177.995,181.565,168.861z M222.652,215.955c-3.206,9.076-14.752,19.901-16.043,20.8
	c-4.867,3.389-12.674,2.727-17.218-0.785c-1.743-1.348-8.472-8.57-4.304-17.66c0.41-0.895,11.718-16.439,16.826-20.015
	c2.99-2.094,10.163-2.266,15.261,1.177C222.506,203.074,224.367,211.101,222.652,215.955z"/>
</svg>
